<?xml version="1.0" encoding="UTF-8"?>
<!-- Generator: visioncortex VTracer 0.6.3 -->
<svg version="1.1" xmlns="http://www.w3.org/2000/svg" width="1280" height="1280">
<path d="M0 0 C1.4 -0 2.79 -0.01 4.19 -0.02 C8.01 -0.04 11.83 -0.02 15.66 -0 C19.82 0.01 23.98 -0 28.15 -0.01 C35.44 -0.02 42.74 -0.02 50.03 -0 C60.88 0.02 71.72 0.02 82.57 0.01 C100.82 -0 119.07 0.01 137.31 0.03 C155.38 0.05 173.46 0.07 191.53 0.07 C192.65 0.07 193.78 0.07 194.93 0.07 C199.5 0.07 204.06 0.07 208.62 0.07 C251.42 0.07 294.22 0.1 337.02 0.14 C375.06 0.17 413.1 0.19 451.14 0.2 C452.35 0.2 453.56 0.2 454.8 0.2 C458.46 0.2 462.12 0.2 465.78 0.2 C470.64 0.2 475.5 0.2 480.36 0.2 C481.56 0.2 482.76 0.2 484 0.2 C521.46 0.2 558.92 0.22 596.37 0.24 C608.81 0.24 621.24 0.25 633.67 0.25 C634.79 0.25 635.91 0.25 637.06 0.25 C638.18 0.25 639.3 0.25 640.45 0.25 C661.96 0.26 683.47 0.27 704.97 0.3 C715.76 0.31 726.54 0.32 737.32 0.31 C744.52 0.31 751.72 0.32 758.91 0.34 C763.02 0.34 767.12 0.35 771.23 0.34 C774.96 0.34 778.69 0.34 782.42 0.36 C784.4 0.36 786.38 0.36 788.36 0.35 C794.3 0.38 799.39 0.57 804.98 2.62 C806.69 3.18 806.69 3.18 808.42 3.75 C815.26 6.81 820.12 12.94 823.29 19.57 C825.45 25.97 825.14 32.57 825.11 39.25 C825.11 40.39 825.11 41.54 825.1 42.73 C825.03 58.7 824.49 74.66 823.98 90.62 C828.36 86.83 832.67 82.99 836.86 79 C852.56 64.69 870.56 53.75 890.04 45.48 C891.76 44.72 893.43 43.86 895.09 42.99 C898.31 41.47 901.32 40.72 904.8 40 C908.71 39.46 908.71 39.46 911.98 37.62 C919.77 35.69 927.62 35.19 935.61 34.93 C937.32 34.88 937.32 34.88 939.07 34.82 C957.64 34.3 975.56 35.73 992.98 42.62 C994.55 43.19 994.55 43.19 996.15 43.76 C1004.22 46.73 1011.49 50.43 1018.98 54.62 C1020.31 55.3 1021.64 55.97 1022.98 56.62 C1022.98 57.28 1022.98 57.94 1022.98 58.62 C1023.53 58.7 1024.07 58.79 1024.63 58.87 C1027.8 59.88 1030.05 61.6 1032.73 63.56 C1034.21 64.62 1034.21 64.62 1035.72 65.71 C1036.47 66.34 1037.21 66.97 1037.98 67.62 C1037.98 68.28 1037.98 68.94 1037.98 69.62 C1038.64 69.62 1039.3 69.62 1039.98 69.62 C1039.98 70.28 1039.98 70.94 1039.98 71.62 C1040.53 71.84 1041.07 72.05 1041.63 72.28 C1044.8 74.09 1047.19 76.54 1049.73 79.12 C1050.24 79.62 1050.75 80.12 1051.27 80.63 C1054.98 84.37 1054.98 84.37 1054.98 86.62 C1055.64 86.62 1056.3 86.62 1056.98 86.62 C1060.98 92.03 1060.98 92.03 1060.98 94.62 C1061.64 94.62 1062.3 94.62 1062.98 94.62 C1064.58 96.84 1066.05 99.05 1067.48 101.37 C1067.89 102.01 1068.29 102.64 1068.71 103.29 C1073.98 111.65 1073.98 111.65 1073.98 116.62 C1074.64 116.62 1075.3 116.62 1075.98 116.62 C1077.33 119.95 1078.66 123.28 1079.98 126.62 C1080.6 128.16 1080.6 128.16 1081.22 129.72 C1085.04 139.44 1088.8 149.2 1089.98 159.62 C1090.31 159.95 1090.64 160.28 1090.98 160.62 C1091.19 162.09 1091.35 163.58 1091.48 165.06 C1091.78 168.47 1091.78 168.47 1092.98 171.62 C1095.52 183.98 1095.29 196.54 1095.25 209.09 C1095.23 212.55 1095.25 216.01 1095.26 219.46 C1095.28 250.04 1095.28 250.04 1091.98 256.62 C1091.86 257.92 1091.74 259.22 1091.61 260.56 C1091.14 265.13 1090.07 269.36 1088.79 273.77 C1088.01 276.52 1087.37 279.27 1086.73 282.06 C1083.74 294.15 1079.42 306.17 1074.02 317.4 C1073.09 319.39 1072.36 321.35 1071.67 323.43 C1070.02 328.02 1067.5 332.13 1065.05 336.32 C1062.13 341.31 1059.48 346.4 1056.98 351.62 C1056.32 351.62 1055.66 351.62 1054.98 351.62 C1054.8 352.5 1054.8 352.5 1054.62 353.4 C1053.96 355.69 1053.14 357.17 1051.8 359.12 C1051.35 359.78 1050.9 360.43 1050.44 361.1 C1049.96 361.79 1049.48 362.48 1048.98 363.18 C1048.49 363.89 1048 364.6 1047.5 365.33 C1043.84 370.55 1039.97 375.52 1035.86 380.39 C1033.96 382.58 1033.96 382.58 1032.36 384.92 C1031.91 385.48 1031.45 386.04 1030.98 386.62 C1030.32 386.62 1029.66 386.62 1028.98 386.62 C1028.6 387.5 1028.6 387.5 1028.2 388.39 C1026.9 390.78 1025.49 392.37 1023.58 394.29 C1022.92 394.96 1022.26 395.62 1021.57 396.3 C1020.88 396.99 1020.2 397.67 1019.48 398.37 C1018.8 399.07 1018.11 399.77 1017.39 400.48 C1016.73 401.14 1016.07 401.8 1015.39 402.48 C1014.79 403.08 1014.18 403.69 1013.56 404.31 C1011.98 405.62 1011.98 405.62 1009.98 405.62 C1009.98 406.28 1009.98 406.94 1009.98 407.62 C1009.32 407.62 1008.66 407.62 1007.98 407.62 C1007.98 408.28 1007.98 408.94 1007.98 409.62 C1005.79 411.54 1003.6 413.34 1001.3 415.12 C1000.67 415.62 1000.05 416.12 999.4 416.63 C996.06 419.24 993.07 421.31 988.98 422.62 C988.98 423.28 988.98 423.94 988.98 424.62 C987.99 424.62 987 424.62 985.98 424.62 C985.98 425.28 985.98 425.94 985.98 426.62 C985.45 426.91 984.92 427.2 984.37 427.5 C979.22 430.34 974.2 433.32 969.25 436.48 C966.98 437.62 966.98 437.62 962.98 437.62 C962.98 438.28 962.98 438.94 962.98 439.62 C955.41 442.74 947.76 445.42 939.92 447.81 C939.12 448.06 938.32 448.31 937.49 448.56 C925.56 452.14 913.86 453.03 901.48 453 C900.37 453 900.37 453 899.22 453 C887.08 452.98 875.72 451.89 863.98 448.62 C862.98 448.37 861.98 448.12 860.95 447.86 C855.65 446.44 850.77 444.28 845.82 441.9 C843.59 440.89 841.4 440.04 839.1 439.22 C835.06 437.72 831.47 435.8 827.8 433.56 C827.16 433.17 826.52 432.79 825.86 432.39 C819.19 428.27 813.08 423.54 806.98 418.62 C806.04 417.91 805.09 417.19 804.12 416.45 C803.41 415.85 802.71 415.24 801.98 414.62 C801.98 413.96 801.98 413.3 801.98 412.62 C801.42 412.39 800.86 412.17 800.28 411.93 C797.34 410.25 795.48 408.15 793.23 405.62 C792.44 404.73 791.64 403.85 790.81 402.93 C788.98 400.62 788.98 400.62 788.98 398.62 C788.32 398.62 787.66 398.62 786.98 398.62 C785.81 397.17 785.81 397.17 784.52 395.15 C783.82 394.05 783.82 394.05 783.09 392.92 C782.36 391.75 782.36 391.75 781.61 390.56 C781.13 389.81 780.65 389.05 780.15 388.28 C777.29 383.8 774.58 379.26 771.98 374.62 C771.64 375.41 771.64 375.41 771.29 376.22 C766.82 386.39 762.21 396.39 756.87 406.13 C755.06 409.48 753.39 412.88 751.73 416.31 C747.47 424.92 742.44 433.07 737.42 441.27 C736.1 443.43 734.8 445.61 733.5 447.79 C732.79 448.98 732.07 450.18 731.36 451.37 C730.75 452.4 730.14 453.42 729.51 454.48 C729.01 455.19 728.5 455.89 727.98 456.62 C727.32 456.62 726.66 456.62 725.98 456.62 C725.72 457.35 725.45 458.08 725.17 458.83 C724 461.59 722.65 463.81 720.95 466.27 C720.08 467.53 720.08 467.53 719.19 468.81 C718.28 470.11 718.28 470.11 717.36 471.43 C716.75 472.32 716.14 473.2 715.51 474.11 C714 476.28 712.5 478.45 710.98 480.62 C711.85 480.62 712.72 480.62 713.62 480.62 C734.77 480.57 755.92 480.54 777.07 480.52 C787.29 480.51 797.52 480.49 807.75 480.47 C816.67 480.45 825.58 480.44 834.5 480.43 C839.22 480.43 843.94 480.42 848.66 480.41 C853.1 480.4 857.55 480.39 861.99 480.39 C863.62 480.39 865.25 480.39 866.88 480.38 C869.11 480.37 871.34 480.37 873.57 480.38 C875.44 480.38 875.44 480.38 877.35 480.37 C885.84 480.95 893.97 483.48 900 489.7 C906.62 497.88 908.74 505.19 908.41 515.66 C907.82 521.19 906.02 525.04 902.98 529.62 C902.39 530.67 901.79 531.72 901.17 532.81 C899.33 535.18 897.73 536.78 895.47 538.68 C890.43 543.04 885.74 547.72 881.05 552.43 C880.19 553.29 879.32 554.15 878.44 555.03 C877.62 555.85 876.8 556.67 875.96 557.52 C875.22 558.26 874.48 559 873.72 559.76 C871.92 561.51 871.92 561.51 870.98 563.62 C870.32 563.62 869.66 563.62 868.98 563.62 C868.98 564.28 868.98 564.94 868.98 565.62 C868.32 565.62 867.66 565.62 866.98 565.62 C866.98 566.28 866.98 566.94 866.98 567.62 C866.32 567.62 865.66 567.62 864.98 567.62 C864.77 568.16 864.55 568.69 864.33 569.24 C862.5 572.48 860.03 575.01 857.48 577.68 C854.77 580.56 852.19 583.32 849.98 586.62 C849.32 586.62 848.66 586.62 847.98 586.62 C847.98 587.28 847.98 587.94 847.98 588.62 C847.32 588.62 846.66 588.62 845.98 588.62 C845.73 589.2 845.47 589.79 845.2 590.39 C843.89 592.8 842.43 594.44 840.48 596.37 C839.88 596.98 839.27 597.6 838.64 598.23 C836.98 599.62 836.98 599.62 834.98 599.62 C834.98 600.28 834.98 600.94 834.98 601.62 C834.32 601.62 833.66 601.62 832.98 601.62 C832.76 602.18 832.53 602.73 832.3 603.31 C830.61 606.28 828.52 608.34 825.98 610.62 C825.32 610.62 824.66 610.62 823.98 610.62 C823.98 611.28 823.98 611.94 823.98 612.62 C823.32 612.62 822.66 612.62 821.98 612.62 C821.98 613.28 821.98 613.94 821.98 614.62 C820.11 616.32 820.11 616.32 817.55 618.31 C816.64 619.01 815.73 619.72 814.8 620.45 C813.87 621.16 812.94 621.88 811.98 622.62 C811.13 623.31 810.27 623.99 809.39 624.7 C808.59 625.34 807.8 625.97 806.98 626.62 C806.26 627.2 805.54 627.78 804.8 628.37 C802.98 629.62 802.98 629.62 800.98 629.62 C800.98 630.28 800.98 630.94 800.98 631.62 C798.95 633.09 796.93 634.43 794.8 635.75 C794.16 636.15 793.52 636.55 792.86 636.96 C791.53 637.79 790.2 638.62 788.87 639.44 C787.22 640.47 785.59 641.54 783.97 642.61 C773.54 649.35 762.26 654.44 750.98 659.62 C749.73 660.2 749.73 660.2 748.45 660.78 C744.7 662.49 741.04 664.05 737.05 665.12 C733.78 666.05 730.68 667.11 727.55 668.43 C719.56 671.72 711.24 674.11 702.98 676.62 C701.73 677.01 700.47 677.39 699.17 677.79 C692.1 679.89 685.03 681.47 677.79 682.85 C674.08 683.6 670.45 684.49 666.8 685.43 C647.68 690.32 628.5 694.24 608.88 696.33 C606.9 696.54 606.9 696.54 604.98 697.62 C595.2 699.71 585.47 699.9 575.52 699.87 C573.89 699.87 572.26 699.87 570.63 699.88 C566.19 699.88 561.74 699.88 557.29 699.87 C552.49 699.86 547.68 699.87 542.87 699.87 C533.47 699.87 524.07 699.87 514.67 699.86 C503.72 699.85 492.78 699.85 481.83 699.85 C462.31 699.85 442.78 699.84 423.26 699.83 C404.31 699.81 385.36 699.81 366.4 699.81 C364.65 699.81 364.65 699.81 362.86 699.81 C361.11 699.81 361.11 699.81 359.33 699.81 C337.75 699.81 316.17 699.8 294.59 699.79 C286.96 699.79 279.32 699.79 271.69 699.79 C262.39 699.79 253.1 699.78 243.81 699.77 C239.06 699.77 234.32 699.77 229.58 699.77 C225.24 699.77 220.9 699.76 216.56 699.76 C214.99 699.76 213.42 699.76 211.84 699.76 C209.71 699.76 207.58 699.76 205.46 699.75 C204.27 699.75 203.08 699.75 201.86 699.75 C198.98 699.62 198.98 699.62 195.98 698.62 C193.99 698.42 191.99 698.26 189.98 698.12 C186.71 697.9 184.11 697.66 180.98 696.62 C179.26 696.47 177.53 696.35 175.8 696.25 C170.36 695.82 165.11 694.98 159.76 693.92 C153.44 692.68 147.09 691.65 140.73 690.62 C133.68 689.47 126.74 688.22 119.84 686.34 C116.19 685.42 112.5 684.78 108.8 684.12 C103.77 683.22 99.01 682.11 94.21 680.36 C91.58 679.49 88.95 678.94 86.23 678.37 C80.06 677 74.11 675.12 68.11 673.12 C67.22 672.82 66.33 672.53 65.41 672.22 C60.49 670.56 55.74 668.7 50.98 666.62 C49.58 666.14 48.16 665.68 46.73 665.25 C36.33 661.84 26.57 656.53 16.84 651.57 C15.23 650.75 13.62 649.93 12.01 649.12 C4.76 645.35 -1.75 640.72 -8.3 635.87 C-9.52 634.98 -10.75 634.12 -11.99 633.27 C-13.7 632.1 -15.36 630.86 -17.02 629.62 C-17.02 628.96 -17.02 628.3 -17.02 627.62 C-17.72 627.39 -18.42 627.17 -19.14 626.93 C-22.76 625.28 -25.1 623.33 -28.02 620.62 C-28.02 619.96 -28.02 619.3 -28.02 618.62 C-28.68 618.62 -29.34 618.62 -30.02 618.62 C-30.02 617.96 -30.02 617.3 -30.02 616.62 C-30.68 616.62 -31.34 616.62 -32.02 616.62 C-32.02 615.96 -32.02 615.3 -32.02 614.62 C-32.86 614.27 -32.86 614.27 -33.72 613.9 C-36.53 612.33 -38.49 610.41 -40.77 608.12 C-41.56 607.33 -42.36 606.53 -43.19 605.71 C-45.02 603.62 -45.02 603.62 -45.02 601.62 C-45.68 601.62 -46.34 601.62 -47.02 601.62 C-47.02 600.96 -47.02 600.3 -47.02 599.62 C-47.68 599.62 -48.34 599.62 -49.02 599.62 C-49.02 598.96 -49.02 598.3 -49.02 597.62 C-49.68 597.62 -50.34 597.62 -51.02 597.62 C-51.02 596.96 -51.02 596.3 -51.02 595.62 C-51.68 595.62 -52.34 595.62 -53.02 595.62 C-54.53 594.12 -54.53 594.12 -56.27 592.06 C-56.88 591.33 -57.5 590.61 -58.13 589.86 C-59.06 588.75 -59.06 588.75 -60.02 587.62 C-60.61 586.95 -61.2 586.29 -61.81 585.6 C-62.35 584.99 -62.89 584.38 -63.45 583.75 C-64.19 582.91 -64.19 582.91 -64.95 582.07 C-66.02 580.62 -66.02 580.62 -66.02 578.62 C-66.68 578.62 -67.34 578.62 -68.02 578.62 C-69.58 576.93 -71.07 575.17 -72.52 573.37 C-73.31 572.4 -74.1 571.42 -74.92 570.42 C-76.6 568.17 -77.9 566.17 -79.02 563.62 C-79.68 563.62 -80.34 563.62 -81.02 563.62 C-82.43 562.22 -82.43 562.22 -84.08 560.25 C-86.91 556.91 -89.78 553.62 -92.7 550.37 C-93.43 549.56 -94.15 548.75 -94.9 547.92 C-96.31 546.38 -97.78 544.89 -99.28 543.45 C-101.02 541.62 -101.02 541.62 -101.02 539.62 C-101.68 539.62 -102.34 539.62 -103.02 539.62 C-103.02 538.96 -103.02 538.3 -103.02 537.62 C-103.68 537.62 -104.34 537.62 -105.02 537.62 C-105.02 536.96 -105.02 536.3 -105.02 535.62 C-105.68 535.62 -106.34 535.62 -107.02 535.62 C-114.1 527.29 -117.71 519.59 -117.35 508.64 C-116.27 498.92 -111.16 492.06 -104.02 485.62 C-97.48 481.13 -90.81 480.49 -82.99 480.5 C-82.31 480.5 -81.63 480.5 -80.92 480.5 C-78.65 480.5 -76.37 480.5 -74.1 480.51 C-72.46 480.51 -70.82 480.51 -69.19 480.51 C-64.75 480.51 -60.32 480.51 -55.89 480.52 C-51.25 480.53 -46.61 480.53 -41.98 480.53 C-33.2 480.53 -24.43 480.54 -15.65 480.55 C-5.66 480.56 4.34 480.57 14.33 480.57 C34.88 480.58 55.43 480.6 75.98 480.62 C75.08 479.25 75.08 479.25 74.15 477.84 C71.88 474.4 69.61 470.95 67.34 467.5 C66.37 466.01 65.39 464.53 64.41 463.05 C48.98 439.66 48.98 439.66 48.98 435.62 C48.32 435.62 47.66 435.62 46.98 435.62 C45.58 433.06 44.18 430.49 42.79 427.92 C41.55 425.65 40.29 423.39 39.03 421.14 C38.08 419.43 38.08 419.43 37.11 417.68 C36.51 416.62 35.92 415.56 35.31 414.47 C33.98 411.62 33.98 411.62 33.98 407.62 C33.32 407.62 32.66 407.62 31.98 407.62 C31.61 406.55 31.24 405.48 30.86 404.37 C28.42 397.86 25.17 391.69 21.88 385.57 C19.11 380.31 17.22 374.82 15.27 369.21 C14.09 365.92 12.8 362.71 11.42 359.5 C9.31 354.52 7.55 349.5 5.89 344.36 C5.13 342.06 4.31 339.81 3.42 337.56 C1.91 333.63 0.86 329.61 -0.17 325.53 C-1.01 322.47 -1.01 322.47 -2.42 318.99 C-4.38 313.85 -5.68 308.57 -7.02 303.25 C-8.45 297.59 -9.89 291.96 -11.61 286.39 C-12.89 282.19 -13.77 278.07 -14.52 273.75 C-15.33 269.13 -16.23 264.58 -17.45 260.06 C-19.74 251.29 -21.04 242.31 -22.54 233.38 C-22.95 231 -23.38 228.64 -23.83 226.27 C-25.71 216.35 -26.93 206.39 -28.01 196.35 C-28.13 195.28 -28.25 194.21 -28.37 193.1 C-28.47 192.14 -28.57 191.18 -28.67 190.19 C-28.97 187.93 -29.46 185.83 -30.02 183.62 C-30.27 180.21 -30.46 176.8 -30.62 173.38 C-30.79 170.25 -31.02 167.61 -32.02 164.62 C-32.15 163.07 -32.24 161.51 -32.3 159.95 C-32.33 159.03 -32.37 158.12 -32.41 157.19 C-32.46 155.76 -32.46 155.76 -32.52 154.31 C-32.58 152.44 -32.66 150.57 -32.73 148.7 C-32.76 147.87 -32.79 147.04 -32.83 146.18 C-32.98 143.55 -32.98 143.55 -33.5 140.7 C-34.48 134.85 -34.67 128.91 -35.02 123 C-35.06 122.26 -35.1 121.52 -35.15 120.76 C-36.31 100.36 -36.62 79.93 -36.89 59.5 C-36.96 54.23 -37.05 48.96 -37.19 43.7 C-37.28 40.65 -37.33 37.6 -37.39 34.56 C-37.43 33.56 -37.47 32.57 -37.51 31.54 C-37.59 24.3 -35.41 18.97 -32.02 12.62 C-31.36 12.62 -30.7 12.62 -30.02 12.62 C-29.61 11.66 -29.61 11.66 -29.2 10.68 C-28.02 8.62 -28.02 8.62 -25.02 7.62 C-25.02 6.96 -25.02 6.3 -25.02 5.62 C-16.57 0.89 -9.58 -0.09 0 0 Z M919.8 100.12 C918.74 100.42 918.74 100.42 917.66 100.73 C913.71 101.91 910.43 103.39 906.98 105.62 C905.97 106.03 904.96 106.45 903.92 106.87 C898.35 109.19 892.97 112.22 887.98 115.62 C887.98 116.28 887.98 116.94 887.98 117.62 C886 118.28 884.02 118.94 881.98 119.62 C881.98 120.28 881.98 120.94 881.98 121.62 C881.32 121.62 880.66 121.62 879.98 121.62 C879.98 122.28 879.98 122.94 879.98 123.62 C879.45 123.84 878.91 124.07 878.35 124.3 C875.22 126.05 872.72 128.37 870.11 130.81 C869.58 131.3 869.05 131.79 868.5 132.3 C864.7 135.86 861.16 139.47 857.98 143.62 C857.98 144.28 857.98 144.94 857.98 145.62 C857.32 145.62 856.66 145.62 855.98 145.62 C853.02 149.25 853.02 149.25 851.98 153.62 C851.32 153.62 850.66 153.62 849.98 153.62 C848.72 155.22 848.72 155.22 847.52 157.31 C847.05 158.09 846.58 158.87 846.09 159.68 C845.6 160.5 845.11 161.33 844.61 162.18 C843.89 163.38 843.89 163.38 843.15 164.61 C841.75 166.94 840.36 169.28 838.98 171.62 C838.59 172.29 838.2 172.95 837.79 173.64 C835.74 177.16 834.18 180.58 832.83 184.4 C831.86 186.96 830.71 189.4 829.55 191.87 C827.27 196.79 825.53 201.76 823.89 206.92 C822.98 209.62 822.98 209.62 821.42 213.06 C819.6 217.58 818.64 222.16 817.63 226.93 C816.98 229.62 816.98 229.62 815.98 230.62 C815.17 234.03 814.61 237.49 813.98 240.93 C813.72 242.35 813.72 242.35 813.45 243.79 C809.79 263.86 809.24 285.53 812.98 305.62 C813.1 306.27 813.21 306.91 813.33 307.58 C814.56 314.63 816.04 321.04 818.98 327.62 C819.76 329.72 820.53 331.83 821.3 333.93 C823.26 339.07 825.56 343.62 828.49 348.25 C830.82 351.95 832.89 355.79 834.98 359.62 C835.64 359.62 836.3 359.62 836.98 359.62 C837.33 360.39 837.33 360.39 837.67 361.18 C839.47 364.52 841.48 367.77 843.98 370.62 C844.64 370.62 845.3 370.62 845.98 370.62 C845.98 371.28 845.98 371.94 845.98 372.62 C846.64 372.62 847.3 372.62 847.98 372.62 C847.98 373.28 847.98 373.94 847.98 374.62 C848.64 374.62 849.3 374.62 849.98 374.62 C849.98 375.28 849.98 375.94 849.98 376.62 C860.6 385.57 873.87 392.54 887.98 392.62 C889.1 392.65 890.21 392.67 891.36 392.7 C901.86 392.83 911.55 392.13 921.61 389.06 C922.47 388.8 923.32 388.54 924.21 388.27 C932.63 385.61 940.24 381.81 947.98 377.62 C949.98 376.61 951.98 375.61 953.98 374.62 C953.98 373.96 953.98 373.3 953.98 372.62 C954.87 372.44 954.87 372.44 955.78 372.26 C959.29 371.24 961.9 368.9 964.73 366.68 C965.64 366 965.64 366 966.56 365.3 C968.08 364.13 969.54 362.88 970.98 361.62 C970.98 360.96 970.98 360.3 970.98 359.62 C971.56 359.37 972.13 359.13 972.72 358.87 C980.47 354.6 987.01 345.79 991.98 338.62 C991.98 337.96 991.98 337.3 991.98 336.62 C992.64 336.62 993.3 336.62 993.98 336.62 C995.8 334.16 997.47 331.7 999.11 329.12 C999.6 328.35 1000.09 327.58 1000.6 326.79 C1005.3 319.32 1009.3 311.63 1012.98 303.62 C1013.3 302.93 1013.62 302.24 1013.95 301.53 C1017.24 294.39 1020.31 287.3 1022.38 279.7 C1022.98 277.62 1022.98 277.62 1024.48 274.31 C1026.27 269.91 1027.23 265.54 1028.23 260.91 C1028.87 258.11 1029.64 255.43 1030.48 252.68 C1040.21 216.81 1037.45 174.24 1019.09 141.53 C1017.16 138.19 1015.17 134.89 1013.11 131.62 C1012.73 131.01 1012.35 130.41 1011.95 129.78 C1011.02 128.36 1010.01 126.98 1008.98 125.62 C1008.32 125.62 1007.66 125.62 1006.98 125.62 C1006.76 124.91 1006.53 124.19 1006.3 123.46 C1001.23 112.5 986.93 102.93 975.98 98.62 C956.69 92.38 938.88 94.64 919.8 100.12 Z " fill="#000000" transform="translate(166.01527786254883,448.3791742324829)"/>
<path d="M0 0 C0.92 0 1.84 0 2.79 0 C3.85 -0 4.91 -0.01 6 -0.01 C7.18 -0.01 8.35 -0 9.57 0 C10.81 -0 12.06 -0 13.34 -0.01 C16.83 -0.01 20.31 -0.01 23.8 -0 C27.58 0.01 31.37 -0 35.15 -0 C41.79 -0.01 48.42 -0.01 55.06 -0 C64.93 0.01 74.8 0.01 84.68 0 C101.28 -0 117.88 -0 134.48 0.01 C150.93 0.02 167.38 0.02 183.82 0.02 C184.84 0.02 185.86 0.02 186.92 0.02 C191.06 0.02 195.21 0.02 199.35 0.02 C238.28 0.02 277.2 0.03 316.13 0.05 C350.74 0.06 385.35 0.07 419.97 0.06 C422.19 0.06 424.41 0.06 426.63 0.06 C428.28 0.06 428.28 0.06 429.96 0.06 C435.49 0.06 441.02 0.06 446.56 0.06 C447.65 0.06 448.74 0.06 449.86 0.06 C478.75 0.06 507.64 0.07 536.52 0.07 C537.55 0.07 538.58 0.07 539.63 0.08 C543.76 0.08 547.89 0.08 552.03 0.08 C566.42 0.08 580.81 0.08 595.21 0.08 C613.75 0.08 632.3 0.09 650.84 0.1 C660.66 0.1 670.48 0.1 680.3 0.1 C686.84 0.1 693.39 0.11 699.94 0.11 C703.67 0.11 707.41 0.12 711.15 0.11 C715.16 0.11 719.17 0.12 723.18 0.12 C724.36 0.12 725.54 0.12 726.76 0.11 C728.35 0.12 728.35 0.12 729.96 0.12 C730.88 0.12 731.8 0.12 732.75 0.12 C734.81 0.25 734.81 0.25 735.81 1.25 C735.91 2.62 735.94 3.99 735.94 5.36 C735.94 6.23 735.94 7.1 735.94 8 C735.94 8.95 735.93 9.9 735.93 10.88 C735.92 11.87 735.92 12.86 735.92 13.88 C735.85 24.64 735.47 35.38 735 46.12 C734.93 47.66 734.93 47.66 734.87 49.24 C734.01 69.24 732.72 89.19 730.99 109.14 C730.82 111.11 730.66 113.08 730.5 115.05 C723.58 197.07 702.93 280.52 657.81 350.25 C657.27 351.09 656.73 351.93 656.17 352.8 C646.15 368.23 635.44 382.99 623.81 397.25 C623.12 398.12 622.43 398.98 621.71 399.88 C620.26 401.68 618.8 403.46 617.3 405.22 C614.78 408.2 614.78 408.2 612.63 411.37 C608.98 416.14 605.81 420.16 599.69 421.36 C594.61 421.94 589.55 421.84 584.45 421.76 C582.48 421.77 580.51 421.79 578.54 421.81 C573.14 421.86 567.75 421.83 562.36 421.79 C556.53 421.76 550.71 421.8 544.88 421.82 C533.48 421.87 522.07 421.85 510.67 421.81 C501.4 421.78 492.14 421.77 482.87 421.78 C481.55 421.78 480.23 421.78 478.87 421.78 C476.86 421.78 474.85 421.79 472.84 421.79 C447.76 421.81 422.67 421.77 397.59 421.7 C375.31 421.63 353.04 421.62 330.76 421.66 C325.05 421.67 319.35 421.68 313.64 421.69 C312.94 421.69 312.24 421.7 311.51 421.7 C292.89 421.73 274.26 421.71 255.63 421.68 C252.96 421.67 250.29 421.67 247.62 421.67 C246.31 421.66 245 421.66 243.64 421.66 C234.39 421.65 225.13 421.66 215.87 421.67 C204.59 421.69 193.31 421.68 182.03 421.62 C176.27 421.59 170.52 421.57 164.76 421.6 C159.49 421.63 154.23 421.61 148.96 421.55 C147.05 421.54 145.15 421.54 143.24 421.57 C129.06 421.72 129.06 421.72 123.54 418.1 C121 415.61 118.89 413.13 116.81 410.25 C115.58 408.71 114.34 407.18 113.1 405.64 C112 404.18 110.91 402.71 109.81 401.25 C108.73 399.89 107.65 398.53 106.56 397.17 C90.66 377.19 77.05 355.64 64.81 333.25 C64.39 332.47 63.96 331.69 63.52 330.89 C22.8 256.2 7.31 172.08 -0.19 88.25 C-0.35 86.44 -0.35 86.44 -0.52 84.58 C-1.89 69.06 -2.61 53.5 -3.31 37.94 C-3.36 36.97 -3.4 35.99 -3.45 34.99 C-4.68 7.73 -4.68 7.73 -4.19 2.25 C-2.19 0.25 -2.19 0.25 0 0 Z " fill="#C47238" transform="translate(193.18768141046166,508.7501850016415)"/>
<path d="M0 0 C78.05 -0.02 156.11 -0.03 234.16 -0.04 C235.31 -0.04 236.47 -0.04 237.66 -0.04 C262.74 -0.05 287.82 -0.05 312.91 -0.05 C325.2 -0.05 337.5 -0.05 349.8 -0.05 C351.03 -0.06 352.25 -0.06 353.51 -0.06 C393.22 -0.06 432.93 -0.07 472.64 -0.08 C513.43 -0.09 554.22 -0.09 595.01 -0.09 C600.76 -0.09 606.52 -0.09 612.27 -0.09 C613.41 -0.09 614.54 -0.1 615.71 -0.1 C633.97 -0.1 652.24 -0.1 670.51 -0.11 C688.86 -0.11 707.2 -0.11 725.55 -0.11 C736.46 -0.11 747.37 -0.11 758.29 -0.12 C765.56 -0.12 772.84 -0.12 780.12 -0.12 C784.27 -0.12 788.42 -0.12 792.58 -0.12 C796.35 -0.13 800.12 -0.13 803.9 -0.12 C805.91 -0.12 807.92 -0.13 809.93 -0.13 C811.11 -0.13 812.29 -0.13 813.5 -0.12 C814.52 -0.12 815.54 -0.12 816.6 -0.12 C819 0 819 0 821 1 C819.37 5.1 816.42 7.88 813.36 10.95 C812.79 11.52 812.22 12.09 811.64 12.67 C810.44 13.88 809.23 15.09 808.03 16.29 C806.22 18.09 804.43 19.9 802.64 21.72 C792.84 31.57 782.41 40.12 770.69 47.62 C769.98 48.08 769.26 48.54 768.53 49.01 C761.28 53.57 753.79 57.44 746 61 C745.31 61.32 744.62 61.64 743.9 61.97 C713.63 75.83 681.04 83 648.5 89.25 C647.63 89.42 646.77 89.58 645.88 89.76 C640.8 90.73 635.72 91.65 630.63 92.53 C629.02 92.82 627.42 93.11 625.82 93.42 C608 96.83 590.03 96.44 571.98 96.42 C567.26 96.42 562.54 96.43 557.82 96.45 C548.6 96.47 539.38 96.47 530.16 96.47 C522.65 96.47 515.14 96.47 507.63 96.48 C483.93 96.5 460.23 96.51 436.54 96.5 C417.93 96.49 399.33 96.52 380.73 96.55 C361.55 96.58 342.36 96.6 323.18 96.59 C312.45 96.59 301.71 96.6 290.97 96.62 C281.82 96.64 272.67 96.64 263.52 96.63 C258.88 96.62 254.23 96.62 249.58 96.64 C179.78 96.93 95.63 85.43 39 42 C38.28 41.46 37.56 40.91 36.81 40.35 C29.97 35.07 23.9 29.18 17.84 23.04 C16.18 21.37 14.51 19.69 12.84 18.02 C11.76 16.94 10.68 15.86 9.61 14.77 C8.87 14.04 8.87 14.04 8.12 13.29 C4.87 9.99 1.75 6.72 -1 3 C-0.67 2.01 -0.34 1.02 0 0 Z " fill="#C47238" transform="translate(150,989)"/>
<path d="M0 0 C5.75 2.02 9.53 6.13 13 11 C13 11.66 13 12.32 13 13 C13.66 13 14.32 13 15 13 C15 13.66 15 14.32 15 15 C15.66 15 16.32 15 17 15 C21 19.47 21 19.47 21 22 C21.66 22 22.32 22 23 22 C24.24 23.35 24.24 23.35 25.6 25.21 C26.09 25.88 26.58 26.55 27.09 27.23 C27.59 27.94 28.1 28.65 28.62 29.38 C29.14 30.07 29.66 30.77 30.19 31.49 C34 36.74 34 36.74 34 39 C34.66 39 35.32 39 36 39 C36.29 39.53 36.58 40.07 36.88 40.62 C39.14 44.71 41.45 48.73 43.94 52.69 C58.09 76.19 62.76 103.56 56.22 130.16 C51.64 146.33 43.24 160.13 34 174 C33.34 174 32.68 174 32 174 C31.79 174.69 31.57 175.37 31.35 176.08 C29.59 179.87 27.14 182.59 24.38 185.69 C23.29 186.93 22.21 188.17 21.12 189.41 C20.59 190.01 20.06 190.62 19.52 191.25 C15.44 195.97 11.46 200.81 8 206 C7.34 206 6.68 206 6 206 C6 206.66 6 207.32 6 208 C5.34 208 4.68 208 4 208 C3.34 209.65 2.68 211.3 2 213 C1.34 213 0.68 213 0 213 C-0.25 213.73 -0.51 214.45 -0.77 215.2 C-2.09 218.2 -3.64 220.25 -5.75 222.75 C-11.52 229.84 -16.05 236.71 -19.75 245.06 C-20.04 245.72 -20.34 246.38 -20.64 247.06 C-23.79 254.43 -25.38 261.3 -25.31 269.31 C-25.31 270.06 -25.3 270.8 -25.3 271.57 C-25.16 277.77 -24.15 283.16 -22 289 C-21.61 290.14 -21.22 291.27 -20.82 292.44 C-15.82 306.02 -8.12 317.8 0.95 329.02 C4 332.81 4 332.81 4 335 C4.66 335 5.32 335 6 335 C10.99 341.1 14.36 347 13.81 355 C13.3 359.16 12.19 362.38 10 366 C9.34 366 8.68 366 8 366 C8 366.66 8 367.32 8 368 C7.34 368 6.68 368 6 368 C6 368.66 6 369.32 6 370 C-6.14 375.47 -6.14 375.47 -13.18 373.34 C-19.91 370.72 -25.23 366.62 -28.44 360.06 C-28.62 359.38 -28.81 358.7 -29 358 C-29.66 358 -30.32 358 -31 358 C-31.66 356.35 -32.32 354.7 -33 353 C-33.66 353 -34.32 353 -35 353 C-37.11 350.58 -38.82 347.84 -40.62 345.19 C-41.4 344.08 -41.4 344.08 -42.19 342.95 C-42.67 342.24 -43.16 341.53 -43.66 340.79 C-44.11 340.14 -44.56 339.48 -45.02 338.81 C-46 337 -46 337 -46 334 C-46.66 334 -47.32 334 -48 334 C-57.71 316.38 -67.19 297.53 -68 277 C-68.05 275.93 -68.1 274.86 -68.16 273.76 C-68.34 266.53 -67.85 259.69 -66.69 252.56 C-66.51 251.46 -66.51 251.46 -66.33 250.34 C-65.44 245.3 -63.89 240.75 -62 236 C-61.65 234.98 -61.29 233.96 -60.93 232.9 C-55.06 216.4 -44.51 202.81 -34 189 C-33.37 188.15 -32.73 187.3 -32.08 186.43 C-31.46 185.6 -30.84 184.78 -30.2 183.93 C-29.63 183.18 -29.07 182.42 -28.48 181.65 C-27.99 181.1 -27.5 180.56 -27 180 C-26.34 180 -25.68 180 -25 180 C-24.74 179.44 -24.48 178.88 -24.22 178.3 C-22.86 175.73 -21.27 173.55 -19.5 171.25 C-18.59 170.05 -18.59 170.05 -17.66 168.83 C-17.11 168.22 -16.56 167.62 -16 167 C-15.34 167 -14.68 167 -14 167 C-13.71 166.4 -13.42 165.8 -13.12 165.19 C-12 163 -12 163 -10 160 C-9.34 160 -8.68 160 -8 160 C-7.76 159.48 -7.53 158.96 -7.28 158.42 C-5.58 155.21 -3.56 152.24 -1.5 149.25 C-0.89 148.35 -0.89 148.35 -0.28 147.43 C0.76 145.91 1.88 144.45 3 143 C3.66 143 4.32 143 5 143 C5.09 142.48 5.19 141.97 5.29 141.43 C6.26 138.11 7.85 135.13 9.44 132.06 C16.23 118.86 18.24 105.49 14 91 C13.76 90.1 13.51 89.2 13.26 88.27 C9.62 76.1 3.04 65.73 -5 56 C-8 52.26 -8 52.26 -8 50 C-8.66 50 -9.32 50 -10 50 C-11.52 48.3 -12.97 46.54 -14.38 44.75 C-16.59 41.95 -18.73 39.26 -21.29 36.77 C-23 35 -23 35 -23 33 C-23.66 33 -24.32 33 -25 33 C-28.74 25.02 -29.43 19.5 -27 11 C-26.34 11 -25.68 11 -25 11 C-24.96 10.44 -24.92 9.89 -24.88 9.31 C-20.94 -1.1 -9.19 -0.93 0 0 Z " fill="#000000" transform="translate(692,59)"/>
<path d="M0 0 C1.29 -0.03 2.57 -0.06 3.9 -0.09 C10.34 0.71 14.4 4.66 18.62 9.38 C18.62 10.03 18.62 10.69 18.62 11.38 C19.28 11.38 19.94 11.38 20.62 11.38 C20.62 12.03 20.62 12.69 20.62 13.38 C21.28 13.38 21.94 13.38 22.62 13.38 C24.13 14.84 24.13 14.84 25.75 16.75 C26.29 17.38 26.83 18 27.38 18.65 C28.62 20.38 28.62 20.38 28.62 22.38 C29.28 22.38 29.94 22.38 30.62 22.38 C39.45 32.77 47.37 45.28 53.62 57.38 C54.23 58.47 54.23 58.47 54.86 59.58 C67.05 82.25 69.39 108.73 62.94 133.44 C60.68 140.87 57.31 147.56 53.62 154.38 C53.11 155.37 52.59 156.36 52.05 157.38 C45.62 169.5 45.62 169.5 41.62 174.38 C40.97 174.38 40.31 174.38 39.62 174.38 C39.42 175.05 39.22 175.73 39 176.43 C37.14 180.4 34.47 183.31 31.56 186.56 C30.47 187.8 29.37 189.05 28.28 190.29 C27.79 190.84 27.31 191.38 26.81 191.94 C25.53 193.39 25.53 193.39 24.62 195.38 C23.97 195.38 23.31 195.38 22.62 195.38 C22.37 195.94 22.11 196.5 21.84 197.08 C20.48 199.64 18.9 201.83 17.12 204.12 C16.52 204.92 15.91 205.72 15.28 206.55 C14.73 207.15 14.19 207.75 13.62 208.38 C12.97 208.38 12.31 208.38 11.62 208.38 C11.35 208.96 11.07 209.55 10.79 210.15 C9.68 212.27 8.47 214.05 7.02 215.95 C6.51 216.61 6.01 217.27 5.49 217.96 C4.96 218.65 4.42 219.35 3.88 220.06 C2.78 221.51 1.69 222.97 0.6 224.42 C-1.02 226.57 -2.63 228.72 -4.25 230.86 C-12.03 241.78 -17.79 255.69 -17.69 269.12 C-17.68 269.92 -17.68 270.72 -17.67 271.54 C-17.54 277.89 -16.61 283.4 -14.38 289.38 C-13.96 290.54 -13.55 291.71 -13.12 292.92 C-8.41 305.75 -1.18 316.61 7.03 327.44 C9.02 330.07 10.57 332.22 11.62 335.38 C12.28 335.38 12.94 335.38 13.62 335.38 C15.1 337.27 15.1 337.27 16.69 339.75 C17.21 340.56 17.74 341.37 18.29 342.21 C21.78 347.85 21.24 353.89 20.62 360.38 C18.68 366.24 14.8 369.42 9.59 372.46 C4.71 374.73 -0.36 375.26 -5.58 373.73 C-14.33 370.24 -20.43 363.25 -25.38 355.38 C-25.38 354.71 -25.38 354.06 -25.38 353.38 C-26.03 353.38 -26.7 353.38 -27.38 353.38 C-30 350.24 -32.21 346.76 -34.5 343.38 C-35.18 342.37 -35.86 341.37 -36.56 340.34 C-41.92 332.3 -46.44 324.19 -50.38 315.38 C-50.86 314.33 -51.35 313.29 -51.86 312.22 C-54.8 305.66 -56.47 299.18 -57.8 292.11 C-58.09 289.47 -58.09 289.47 -59.38 288.38 C-60.36 280.42 -60.63 272.38 -60.38 264.38 C-60.33 262.98 -60.33 262.98 -60.29 261.55 C-59.59 249.05 -55.95 237.52 -50.38 226.38 C-49.75 225 -49.75 225 -49.11 223.59 C-42.65 209.78 -33.22 197.91 -23.54 186.24 C-20.03 182 -16.7 177.62 -13.45 173.18 C-12.47 171.88 -11.43 170.62 -10.38 169.38 C-9.72 169.38 -9.05 169.38 -8.38 169.38 C-8.38 168.72 -8.38 168.06 -8.38 167.38 C-7.72 167.38 -7.05 167.38 -6.38 167.38 C-5.72 165.72 -5.05 164.07 -4.38 162.38 C-3.72 162.38 -3.05 162.38 -2.38 162.38 C-1.91 161.45 -1.91 161.45 -1.44 160.5 C-0.75 159.12 -0.06 157.75 0.62 156.38 C1.28 156.38 1.95 156.38 2.62 156.38 C2.91 155.61 3.2 154.85 3.5 154.06 C4.62 151.38 4.62 151.38 6.62 148.38 C7.28 148.38 7.94 148.38 8.62 148.38 C8.9 147.65 9.17 146.92 9.45 146.18 C10.6 143.44 11.93 141.08 13.5 138.56 C16.12 134.27 18.54 129.95 20.62 125.38 C20.98 124.65 21.33 123.93 21.69 123.19 C22.97 119.34 23.13 115.66 23.31 111.62 C23.35 110.82 23.39 110.01 23.43 109.18 C23.92 97.06 21.04 87.8 15.5 77.12 C14.79 75.75 14.07 74.37 13.37 72.98 C13.06 72.39 12.75 71.79 12.43 71.17 C11.58 69.26 11.07 67.41 10.62 65.38 C9.97 65.38 9.31 65.38 8.62 65.38 C6.62 62.38 6.62 62.38 6.62 59.38 C5.97 59.38 5.31 59.38 4.62 59.38 C3.09 57.51 1.67 55.64 0.25 53.69 C-3.46 48.68 -7.42 44.11 -11.75 39.62 C-17.27 33.81 -20.73 28.87 -21.88 20.88 C-20.75 12.98 -17.38 7.51 -11.38 2.38 C-7.72 -0.03 -4.31 0.04 0 0 Z " fill="#000000" transform="translate(575.375,58.625)"/>
<path d="M0 0 C0 0.66 0 1.32 0 2 C0.84 2.34 0.84 2.34 1.69 2.68 C17.11 11.48 29.28 34.06 38 49 C38.35 49.59 38.7 50.19 39.06 50.8 C42.64 56.97 45.58 62.89 47.39 69.81 C48.01 72.26 48.01 72.26 49.56 75.44 C53.14 84.31 53.39 93.72 53.38 103.19 C53.37 104.37 53.37 105.56 53.37 106.78 C53.24 116.11 52.08 124.19 49 133 C48.7 133.9 48.4 134.8 48.09 135.73 C44.31 146.03 38.41 155.5 32.69 164.81 C32.25 165.52 31.82 166.24 31.38 166.97 C30.31 168.68 29.16 170.35 28 172 C27.34 172 26.68 172 26 172 C25.72 172.59 25.44 173.18 25.16 173.79 C24.07 175.86 22.92 177.53 21.47 179.35 C20.99 179.95 20.51 180.56 20.01 181.18 C19.51 181.8 19.01 182.42 18.5 183.06 C17.51 184.3 16.52 185.54 15.53 186.79 C15.09 187.33 14.66 187.88 14.21 188.44 C13.07 189.91 12.03 191.45 11 193 C10.34 193 9.68 193 9 193 C8.74 193.56 8.48 194.12 8.22 194.7 C6.86 197.27 5.27 199.45 3.5 201.75 C2.89 202.55 2.28 203.35 1.66 204.17 C1.11 204.78 0.56 205.38 0 206 C-0.66 206 -1.32 206 -2 206 C-2.28 206.58 -2.56 207.17 -2.84 207.77 C-4.7 211.35 -7.12 214.5 -9.5 217.75 C-10 218.45 -10.5 219.14 -11.01 219.86 C-11.49 220.52 -11.97 221.18 -12.47 221.86 C-13.13 222.76 -13.13 222.76 -13.79 223.69 C-14.19 224.12 -14.59 224.55 -15 225 C-15.66 225 -16.32 225 -17 225 C-17.12 225.58 -17.25 226.16 -17.38 226.76 C-18.01 229.04 -18.86 230.83 -20 232.9 C-20.39 233.63 -20.78 234.35 -21.19 235.1 C-22.02 236.61 -22.85 238.12 -23.67 239.62 C-29.57 250.51 -32.07 261.71 -30 274 C-29.83 275.18 -29.83 275.18 -29.66 276.39 C-27.79 287.54 -22.99 297.48 -17.45 307.22 C-16.23 309.56 -15.47 311.43 -15 314 C-14.34 314 -13.68 314 -13 314 C-11.41 316.05 -9.94 318.1 -8.5 320.25 C-8.1 320.84 -7.69 321.42 -7.28 322.03 C-5.3 324.93 -3.46 327.8 -2 331 C-1.34 331 -0.68 331 0 331 C1.44 332.57 1.44 332.57 3 334.69 C3.52 335.37 4.03 336.06 4.56 336.76 C8.34 342.65 8.78 348.15 8 355 C6.14 360.96 2.56 365.68 -2.7 369.11 C-8.33 371.29 -16.83 371.12 -22.54 369.1 C-24.44 368 -24.44 368 -27 366 C-27 365.34 -27 364.68 -27 364 C-27.66 364 -28.32 364 -29 364 C-30.75 362 -32.39 359.99 -34 357.88 C-34.49 357.24 -34.98 356.61 -35.48 355.96 C-44.09 344.73 -51.98 333.29 -59 321 C-59.41 320.29 -59.82 319.57 -60.24 318.84 C-73.46 294.08 -77.2 265 -69.59 237.93 C-68.18 233.35 -66.22 229.23 -64 225 C-63.39 223.74 -62.79 222.47 -62.18 221.2 C-58.14 212.76 -53.91 204.32 -48 197 C-47.34 197 -46.68 197 -46 197 C-45.74 196.26 -45.47 195.52 -45.2 194.76 C-44 192 -42.71 190.15 -40.78 187.86 C-40.16 187.12 -39.54 186.38 -38.9 185.62 C-38.25 184.86 -37.6 184.1 -36.94 183.31 C-35.65 181.79 -34.37 180.26 -33.09 178.74 C-32.52 178.07 -31.95 177.4 -31.37 176.71 C-29.93 175.04 -29.93 175.04 -29 173 C-28.34 173 -27.68 173 -27 173 C-26.74 172.44 -26.48 171.88 -26.22 171.3 C-24.86 168.73 -23.27 166.55 -21.5 164.25 C-20.59 163.05 -20.59 163.05 -19.66 161.83 C-19.11 161.22 -18.56 160.62 -18 160 C-17.34 160 -16.68 160 -16 160 C-15.72 159.41 -15.44 158.82 -15.16 158.21 C-14.07 156.14 -12.91 154.44 -11.46 152.6 C1.19 136.3 13.38 118.6 11.3 97 C9.98 88.12 6.23 79.75 1.92 71.95 C1 70 1 70 1 67 C0.34 67 -0.32 67 -1 67 C-1.83 65.48 -1.83 65.48 -2.68 63.92 C-4.87 60.09 -7.43 56.69 -10.19 53.25 C-14.87 47.4 -14.87 47.4 -16 44 C-16.66 44 -17.32 44 -18 44 C-19.52 42.5 -19.52 42.5 -21.25 40.44 C-21.87 39.71 -22.48 38.98 -23.12 38.23 C-24.05 37.13 -24.05 37.13 -25 36 C-25.57 35.36 -26.14 34.71 -26.72 34.05 C-27.51 33.16 -27.51 33.16 -28.31 32.25 C-28.78 31.72 -29.25 31.19 -29.74 30.64 C-34.42 24.56 -33.75 17.31 -33 10 C-31 4.24 -27.36 0.85 -22 -2 C-13.67 -5.55 -7.72 -3.92 0 0 Z " fill="#000000" transform="translate(489,57)"/>
</svg>
