<?xml version="1.0" standalone="no"?>
<!DOCTYPE svg PUBLIC "-//W3C//DTD SVG 20010904//EN"
 "http://www.w3.org/TR/2001/REC-SVG-20010904/DTD/svg10.dtd">
<svg version="1.0" xmlns="http://www.w3.org/2000/svg"
 width="600.000000pt" height="600.000000pt" viewBox="0 0 600.000000 600.000000"
 preserveAspectRatio="xMidYMid meet">

<g transform="translate(0.000000,600.000000) scale(0.100000,-0.100000)"
fill="#000000" stroke="none">
<path d="M2182 5733 c-18 -7 -42 -57 -42 -87 0 -15 18 -46 45 -78 201 -239
213 -364 54 -558 -213 -259 -258 -334 -279 -459 -21 -128 22 -269 131 -427 84
-120 123 -143 189 -109 31 16 55 70 43 101 -4 10 -28 47 -55 82 -129 170 -156
288 -94 413 26 51 52 86 196 264 45 55 96 130 114 167 93 183 64 357 -93 565
-80 107 -112 133 -159 132 -20 0 -43 -3 -50 -6z"/>
<path d="M2643 5705 c-12 -8 -27 -31 -33 -50 -14 -43 -8 -56 78 -160 144 -177
164 -296 72 -432 -22 -32 -78 -105 -126 -163 -156 -188 -202 -277 -211 -410
-9 -132 42 -271 154 -418 62 -81 77 -92 125 -92 77 1 113 83 66 148 -131 179
-157 234 -158 332 0 105 15 130 240 410 34 41 80 113 103 159 42 84 42 85 41
195 0 91 -4 121 -23 169 -30 76 -112 198 -181 270 -47 48 -62 57 -91 57 -19 0
-44 -7 -56 -15z"/>
<path d="M3165 5708 c-32 -18 -44 -40 -45 -79 0 -30 11 -50 70 -120 78 -94
127 -184 136 -251 13 -97 -27 -172 -216 -403 -149 -183 -198 -315 -172 -466
20 -116 104 -274 200 -377 61 -65 162 -31 162 56 0 32 -10 51 -54 107 -75 94
-117 182 -124 260 -8 110 28 183 186 369 149 176 203 285 204 416 1 115 -50
244 -147 370 -89 116 -145 149 -200 118z"/>
<path d="M676 3871 c-57 -38 -66 -64 -66 -201 0 -799 158 -1453 465 -1922 36
-54 65 -101 65 -103 0 -3 -178 -5 -395 -5 -427 0 -446 -2 -480 -53 -49 -75
-37 -136 44 -221 31 -34 105 -115 163 -182 175 -198 277 -282 439 -358 171
-80 366 -134 635 -176 122 -19 182 -20 1081 -20 908 0 956 1 1070 20 395 67
683 175 871 326 44 35 142 130 218 211 76 82 159 169 186 196 73 74 78 154 12
218 l-35 34 -424 3 -425 3 68 102 c91 136 101 153 170 291 l59 118 32 -52
c111 -180 317 -303 531 -317 217 -14 423 78 610 273 176 183 286 410 324 666
20 131 20 225 1 351 -30 200 -95 339 -214 458 -125 125 -263 186 -441 196
-198 11 -385 -64 -550 -221 l-50 -47 0 163 c0 182 -8 209 -72 248 -33 20 -55
20 -1948 20 -1859 0 -1916 -1 -1944 -19z m4699 -445 c103 -51 203 -195 241
-346 25 -99 15 -306 -20 -425 -55 -184 -158 -360 -266 -452 -157 -135 -360
-184 -492 -120 -106 52 -205 193 -244 347 -22 83 -22 250 -1 346 53 239 172
448 317 557 160 121 336 156 465 93z"/>
</g>
</svg>
